<?xml version="1.0" encoding="utf-8"?>
<!-- Generator: Adobe Illustrator 21.1.0, SVG Export Plug-In . SVG Version: 6.00 Build 0)  -->
<svg version="1.1" id="Layer_1" xmlns="http://www.w3.org/2000/svg" xmlns:xlink="http://www.w3.org/1999/xlink" x="0px" y="0px"
	 viewBox="0 0 286.8 87.8" style="enable-background:new 0 0 286.8 87.8;" xml:space="preserve">
<style type="text/css">
	.st0{fill:#CD6554;}
	.st1{fill:#E2C5AC;}
	.st2{fill:#6E9099;}
</style>
<g>
	<g>
		<path d="M118.8,41.3H97.2c-0.7,0-1.2-0.2-1.5-0.5c-0.3-0.3-0.5-0.8-0.5-1.5V2.9c0-0.7,0.2-1.2,0.5-1.5c0.3-0.3,0.8-0.5,1.5-0.5
			h17.9c3.7,0,6.4,0.7,8.2,2.1c1.8,1.4,2.6,3.6,2.6,6.5v2.7c0,1.6-0.3,2.9-0.8,3.9c-0.5,1-1.4,1.7-2.5,2.2c2.4,0.2,4.2,1.1,5.3,2.5
			c1.2,1.4,1.7,3.5,1.7,6.2v5.2c0,3.1-0.9,5.5-2.7,7C125.2,40.6,122.5,41.3,118.8,41.3z M107.8,10.4v6.1h4.8c0.7,0,1.2-0.2,1.6-0.6
			c0.4-0.4,0.5-0.9,0.5-1.7v-1.6c0-0.7-0.2-1.3-0.5-1.7c-0.4-0.4-0.9-0.6-1.6-0.6H107.8z M107.8,25.1v6.6h7.3c0.7,0,1.2-0.2,1.6-0.6
			c0.4-0.4,0.5-0.9,0.5-1.7v-2.2c0-0.7-0.2-1.3-0.5-1.7c-0.4-0.4-0.9-0.5-1.6-0.5H107.8z"/>
		<path d="M166.6,41.3h-28.6c-0.7,0-1.2-0.2-1.5-0.5c-0.3-0.3-0.5-0.8-0.5-1.5V2.9c0-0.7,0.2-1.2,0.5-1.5c0.3-0.3,0.8-0.5,1.5-0.5
			h8.7c0.7,0,1.2,0.2,1.5,0.5c0.3,0.3,0.5,0.8,0.5,1.5v27.8h7.7v-9.1c0-0.7,0.2-1.2,0.5-1.5c0.3-0.3,0.8-0.5,1.5-0.5h8.2
			c0.7,0,1.2,0.2,1.5,0.5c0.3,0.3,0.5,0.8,0.5,1.5v17.7c0,0.7-0.2,1.2-0.5,1.5C167.8,41.2,167.3,41.3,166.6,41.3z"/>
		<path d="M209.3,30.7c0,1.7-0.3,3.3-0.8,4.7c-0.5,1.4-1.4,2.6-2.7,3.6c-1.3,1-3.1,1.8-5.3,2.3c-2.3,0.6-5.1,0.8-8.6,0.8
			c-3.5,0-6.4-0.3-8.7-0.8c-2.3-0.6-4.1-1.3-5.4-2.3c-1.3-1-2.2-2.2-2.7-3.6c-0.5-1.4-0.8-3-0.8-4.7V11.5c0-1.7,0.3-3.3,0.8-4.7
			s1.4-2.6,2.7-3.6c1.3-1,3.1-1.8,5.4-2.4c2.3-0.6,5.2-0.8,8.7-0.8c3.5,0,6.4,0.3,8.6,0.8c2.3,0.6,4,1.3,5.3,2.4
			c1.3,1,2.2,2.2,2.7,3.6c0.5,1.4,0.8,3,0.8,4.7V30.7z M187.1,28.7c0,0.8,0.3,1.4,0.8,1.9s1.9,0.8,3.9,0.8c2,0,3.3-0.3,3.9-0.8
			c0.6-0.5,0.8-1.1,0.8-1.9V13.6c0-0.7-0.3-1.3-0.8-1.8c-0.6-0.5-1.9-0.8-3.9-0.8c-2,0-3.3,0.3-3.9,0.8c-0.6,0.5-0.8,1.1-0.8,1.8
			V28.7z"/>
		<path d="M243.4,41.3h-13.7c-4.7,0-8.2-0.9-10.4-2.8c-2.3-1.9-3.4-4.8-3.4-8.7V12.4c0-3.9,1.1-6.8,3.4-8.7
			c2.3-1.9,5.7-2.8,10.4-2.8h13.7c0.7,0,1.2,0.2,1.5,0.5c0.3,0.3,0.5,0.8,0.5,1.5v6.8c0,0.7-0.2,1.2-0.5,1.5
			c-0.3,0.3-0.8,0.5-1.5,0.5h-11.3c-1.2,0-2,0.2-2.6,0.7c-0.6,0.5-0.8,1.2-0.8,2.1v13.4c0,0.9,0.3,1.6,0.8,2.1
			c0.6,0.4,1.4,0.6,2.6,0.6h11.3c0.7,0,1.2,0.2,1.5,0.5c0.3,0.3,0.5,0.8,0.5,1.5v6.7c0,0.7-0.2,1.2-0.5,1.5
			C244.6,41.2,244.1,41.3,243.4,41.3z"/>
		<path d="M262.5,41.3h-8.7c-0.7,0-1.2-0.2-1.5-0.5c-0.3-0.3-0.5-0.8-0.5-1.5V2.9c0-0.7,0.2-1.2,0.5-1.5c0.3-0.3,0.8-0.5,1.5-0.5
			h8.7c0.7,0,1.2,0.2,1.5,0.5c0.3,0.3,0.5,0.8,0.5,1.5v12.9h2.2l5.8-13.1c0.3-0.7,0.6-1.2,1.1-1.4c0.5-0.3,1-0.4,1.7-0.4h8.7
			c0.6,0,1.1,0.2,1.3,0.5c0.2,0.3,0.2,0.8-0.1,1.4l-5.7,13.1c2.1,0.1,3.8,0.9,5,2.2c1.3,1.4,1.9,3.2,1.9,5.4v15.9
			c0,0.7-0.2,1.2-0.5,1.5c-0.3,0.3-0.8,0.5-1.5,0.5h-8.7c-0.7,0-1.2-0.2-1.5-0.5c-0.3-0.3-0.5-0.8-0.5-1.5v-11
			c0-0.6-0.1-1.1-0.4-1.4c-0.3-0.3-0.8-0.5-1.4-0.5h-7.4v12.9c0,0.7-0.2,1.2-0.5,1.5C263.7,41.2,263.2,41.3,262.5,41.3z"/>
	</g>
	<g>
		<path d="M117.9,87.8H97.1c-0.7,0-1.2-0.2-1.5-0.5c-0.3-0.3-0.5-0.8-0.5-1.5V49.4c0-0.7,0.2-1.2,0.5-1.5c0.3-0.3,0.8-0.5,1.5-0.5
			h17.3c3.5,0,6.1,0.7,7.8,2.1c1.7,1.4,2.5,3.6,2.5,6.5v2.7c0,1.6-0.3,2.9-0.8,3.9c-0.5,1-1.3,1.7-2.4,2.2c2.3,0.2,4,1.1,5.1,2.5
			c1.1,1.4,1.7,3.5,1.7,6.2v5.2c0,3.1-0.9,5.5-2.6,7C124.1,87.1,121.4,87.8,117.9,87.8z M107.3,56.9V63h4.6c0.7,0,1.2-0.2,1.5-0.6
			c0.3-0.4,0.5-0.9,0.5-1.7v-1.6c0-0.7-0.2-1.3-0.5-1.7c-0.3-0.4-0.9-0.6-1.5-0.6H107.3z M107.3,71.6v6.6h7c0.7,0,1.2-0.2,1.5-0.6
			c0.3-0.4,0.5-0.9,0.5-1.7v-2.2c0-0.7-0.2-1.3-0.5-1.7c-0.3-0.4-0.9-0.5-1.5-0.5H107.3z"/>
		<path d="M163.8,87.8h-27.5c-0.7,0-1.2-0.2-1.5-0.5c-0.3-0.3-0.5-0.8-0.5-1.5V49.4c0-0.7,0.2-1.2,0.5-1.5c0.3-0.3,0.8-0.5,1.5-0.5
			h8.4c0.7,0,1.2,0.2,1.5,0.5c0.3,0.3,0.5,0.8,0.5,1.5v27.8h7.4v-9.1c0-0.7,0.2-1.2,0.5-1.5c0.3-0.3,0.8-0.5,1.5-0.5h7.8
			c0.7,0,1.2,0.2,1.5,0.5c0.3,0.3,0.5,0.8,0.5,1.5v17.7c0,0.7-0.2,1.2-0.5,1.5C165,87.7,164.5,87.8,163.8,87.8z"/>
		<path d="M173,87.8c-0.7,0-1.2-0.2-1.5-0.5c-0.3-0.3-0.5-0.8-0.5-1.5v-6.7c0-0.7,0.2-1.2,0.5-1.5c0.3-0.3,0.8-0.5,1.5-0.5h5.4V58.2
			H173c-0.7,0-1.2-0.2-1.5-0.5c-0.3-0.3-0.5-0.8-0.5-1.5v-6.8c0-0.7,0.2-1.2,0.5-1.5c0.3-0.3,0.8-0.5,1.5-0.5h23
			c0.7,0,1.2,0.2,1.5,0.5c0.3,0.3,0.5,0.8,0.5,1.5v6.8c0,0.7-0.2,1.2-0.5,1.5c-0.3,0.3-0.8,0.5-1.5,0.5h-5.2v18.9h5.2
			c0.7,0,1.2,0.2,1.5,0.5c0.3,0.3,0.5,0.8,0.5,1.5v6.7c0,0.7-0.2,1.2-0.5,1.5c-0.3,0.3-0.8,0.5-1.5,0.5H173z"/>
		<path d="M223.1,87.8h-8.8c-0.7,0-1.2-0.2-1.5-0.5c-0.3-0.3-0.5-0.8-0.5-1.5V58.2h-8c-0.7,0-1.2-0.2-1.5-0.5
			c-0.3-0.3-0.5-0.8-0.5-1.5v-6.8c0-0.7,0.2-1.2,0.5-1.5c0.3-0.3,0.8-0.5,1.5-0.5H233c0.7,0,1.2,0.2,1.5,0.5
			c0.3,0.3,0.5,0.8,0.5,1.5v6.8c0,0.7-0.2,1.2-0.5,1.5c-0.3,0.3-0.8,0.5-1.5,0.5h-8v27.6c0,0.7-0.2,1.2-0.5,1.5
			C224.3,87.7,223.8,87.8,223.1,87.8z"/>
		<path d="M267.2,87.8h-26.8c-0.7,0-1.2-0.2-1.5-0.5c-0.3-0.3-0.5-0.8-0.5-1.5v-7.5c0-0.7,0.1-1.3,0.3-1.9c0.2-0.5,0.6-1.1,1-1.6
			l13.1-16.6h-11.6c-0.7,0-1.2-0.2-1.5-0.5c-0.3-0.3-0.5-0.8-0.5-1.5v-6.8c0-0.7,0.2-1.2,0.5-1.5c0.3-0.3,0.8-0.5,1.5-0.5h24.9
			c0.7,0,1.2,0.2,1.5,0.5c0.3,0.3,0.5,0.8,0.5,1.5v8.4c0,0.8-0.1,1.4-0.3,1.9c-0.2,0.5-0.6,1.1-1,1.6l-12.5,15.8h12.9
			c0.7,0,1.2,0.2,1.5,0.5c0.3,0.3,0.5,0.8,0.5,1.5v6.7c0,0.7-0.2,1.2-0.5,1.5C268.3,87.7,267.8,87.8,267.2,87.8z"/>
	</g>
</g>
<path d="M84,3.7v81.2H2.8V3.7H84 M86.8,0.8H0v86.8h86.8V0.8L86.8,0.8z"/>
<rect x="45.1" y="10.5" transform="matrix(-1.836970e-16 1 -1 -1.836970e-16 87.6866 -34.5665)" class="st0" width="32.1" height="32.1"/>
<rect x="273.7" y="74.4" transform="matrix(-1.836970e-16 1 -1 -1.836970e-16 361.1852 -199.3614)" class="st0" width="13" height="13"/>
<rect x="45.1" y="46.4" transform="matrix(-1.836970e-16 1 -1 -1.836970e-16 123.6255 1.3725)" class="st1" width="32.1" height="32.1"/>
<polygon class="st2" points="9.5,10.5 9.5,34.4 9.5,42.6 9.5,78.6 41.7,78.6 41.7,42.6 41.7,34.4 41.7,10.5 "/>
</svg>
