<?xml version="1.0" encoding="utf-8"?>
<!-- Generator: Adobe Illustrator 21.1.0, SVG Export Plug-In . SVG Version: 6.00 Build 0)  -->
<svg version="1.1" id="Layer_1" xmlns="http://www.w3.org/2000/svg" xmlns:xlink="http://www.w3.org/1999/xlink" x="0px" y="0px"
	 viewBox="0 0 86.8 86.8" style="enable-background:new 0 0 86.8 86.8;" xml:space="preserve">
<style type="text/css">
	.st0{fill:#FFFFFF;}
	.st1{fill:#CD6554;}
	.st2{fill:#E2C5AC;}
	.st3{fill:#6E9099;}
</style>
<rect x="1.4" y="1" class="st0" width="84.4" height="84.4"/>
<path d="M84,2.8V84H2.8V2.8H84 M86.8,0H0v86.8h86.8V0L86.8,0z"/>
<rect x="45.1" y="9.7" transform="matrix(-1.836970e-16 1 -1 -1.836970e-16 86.8429 -35.4102)" class="st1" width="32.1" height="32.1"/>
<rect x="45.1" y="45.6" transform="matrix(-1.836970e-16 1 -1 -1.836970e-16 122.7819 0.5288)" class="st2" width="32.1" height="32.1"/>
<polygon class="st3" points="9.5,9.7 9.5,33.6 9.5,41.8 9.5,77.7 41.7,77.7 41.7,41.8 41.7,33.6 41.7,9.7 "/>
</svg>
